<svg width="117" height="53" viewBox="0 0 117 53" fill="none" xmlns="http://www.w3.org/2000/svg">
<path d="M27.1187 9.73838V32H22.9025V20.397L23.1386 13.8871H23.0711L16.8986 32H13.0871L6.94832 13.8871H6.88087L7.11697 20.397V32H2.90076V9.73838H9.6467L13.6605 21.8811L15.0772 26.9068H15.1446L16.595 21.9148L20.5751 9.73838H27.1187ZM32.9084 32V9.73838H49.6046V13.4824H37.5631V19.0141H47.0411V22.5894H37.5631V28.256H50.0768V32H32.9084ZM72.1297 9.73838L64.237 23.6688V32H59.5823V23.6688L51.6895 9.73838H56.6478L60.2231 16.4169L61.9096 19.891L63.6298 16.4169L67.2052 9.73838H72.1297ZM74.9717 32V9.73838H91.6679V13.4824H79.6264V19.0141H89.1045V22.5894H79.6264V28.256H92.1401V32H74.9717ZM106.132 9.73838C108.65 9.73838 110.629 10.3455 112.068 11.5598C113.507 12.7741 114.227 14.4043 114.227 16.4506C114.227 18.6318 113.507 20.307 112.068 21.4763C110.629 22.6231 108.661 23.1965 106.165 23.1965L105.693 23.4664H100.904V32H96.3163V9.73838H106.132ZM105.592 19.9248C106.896 19.9248 107.863 19.6662 108.493 19.149C109.145 18.6093 109.471 17.7885 109.471 16.6867C109.471 15.5849 109.145 14.7754 108.493 14.2582C107.863 13.7185 106.896 13.4486 105.592 13.4486H100.904V19.9248H105.592ZM108.324 20.9029L115.542 32H110.314L104.344 22.2521L108.324 20.9029Z" fill="#EB1C24"/>
<path d="M5.02449 39.4104C5.68263 39.4104 6.25237 39.5332 6.7337 39.7788C7.22485 40.0146 7.60795 40.3535 7.88299 40.7955C8.15804 41.2375 8.29556 41.7631 8.29556 42.3721C8.29556 42.9811 8.15804 43.5066 7.88299 43.9487C7.60795 44.3907 7.22485 44.7345 6.7337 44.9801C6.25237 45.2159 5.68263 45.3337 5.02449 45.3337H2.7701V49.1353H1.59133V39.4104H5.02449ZM4.84767 44.2286C5.61387 44.2286 6.17378 44.0715 6.52741 43.7571C6.88104 43.433 7.05786 42.9713 7.05786 42.3721C7.05786 41.7631 6.88104 41.3014 6.52741 40.987C6.17378 40.6727 5.61387 40.5155 4.84767 40.5155H2.7701V44.2286H4.84767ZM13.7231 39.4104C15.2456 39.4104 16.4391 39.8328 17.3036 40.6776C18.1778 41.5126 18.6149 42.711 18.6149 44.2728C18.6149 45.8347 18.1778 47.038 17.3036 47.8828C16.4391 48.7178 15.2456 49.1353 13.7231 49.1353H10.5846V39.4104H13.7231ZM13.8409 48.0302C14.9509 48.0302 15.8154 47.7011 16.4342 47.0429C17.0629 46.375 17.3772 45.4516 17.3772 44.2728C17.3772 43.0941 17.0629 42.1756 16.4342 41.5175C15.8154 40.8495 14.9509 40.5155 13.8409 40.5155H11.7634V48.0302H13.8409ZM28.8216 39.4104L24.5781 43.7571L24.4012 43.9487L21.7932 46.6156V45.0243L27.2745 39.4104H28.8216ZM22.3826 39.4104V49.1353H21.2038V39.4104H22.3826ZM24.6959 43.0057L28.8658 49.1353H27.4513L23.7235 43.6687L24.6959 43.0057ZM33.6806 39.2631C34.5352 39.2631 35.2719 39.4399 35.8908 39.7935C36.5096 40.1373 37.0253 40.6481 37.4379 41.3259L36.4507 42.0921C36.0872 41.4635 35.6747 41.0214 35.213 40.766C34.7611 40.5008 34.211 40.3682 33.5627 40.3682C33.0421 40.3682 32.6099 40.4419 32.2661 40.5892C31.9321 40.7366 31.6865 40.933 31.5293 41.1786C31.3722 41.4143 31.2936 41.6845 31.2936 41.989C31.2936 42.3328 31.4016 42.6373 31.6177 42.9025C31.8338 43.1579 32.2661 43.3593 32.9144 43.5066L35.0214 43.9782C35.9546 44.1844 36.6029 44.4988 36.9664 44.9212C37.3397 45.3337 37.5263 45.8494 37.5263 46.4683C37.5263 47.0184 37.3691 47.5095 37.0548 47.9418C36.7503 48.3641 36.3181 48.6932 35.7581 48.929C35.1982 49.1647 34.5401 49.2826 33.7837 49.2826C33.0765 49.2826 32.4527 49.1893 31.9124 49.0026C31.382 48.8062 30.9252 48.5459 30.5421 48.2217C30.159 47.8976 29.8447 47.5341 29.5991 47.1314L30.6305 46.2915C30.8172 46.6648 31.0578 46.9938 31.3525 47.2787C31.6472 47.5636 32.0008 47.7846 32.4134 47.9418C32.8358 48.0989 33.3171 48.1775 33.8574 48.1775C34.3584 48.1775 34.7906 48.1186 35.154 48.0007C35.5273 47.873 35.8122 47.6913 36.0086 47.4555C36.2051 47.2099 36.3033 46.9152 36.3033 46.5714C36.3033 46.2571 36.2002 45.9771 35.9939 45.7316C35.7876 45.4762 35.3996 45.2846 34.8299 45.1569L32.546 44.6412C31.9468 44.5037 31.4606 44.3171 31.0873 44.0813C30.7238 43.8357 30.4586 43.5509 30.2916 43.2267C30.1345 42.8927 30.0559 42.5342 30.0559 42.1511C30.0559 41.6304 30.1983 41.154 30.4832 40.7218C30.7779 40.2798 31.1953 39.9261 31.7356 39.6609C32.2857 39.3957 32.934 39.2631 33.6806 39.2631ZM48.1417 39.2631C48.9963 39.2631 49.7331 39.4399 50.3519 39.7935C50.9708 40.1373 51.4865 40.6481 51.8991 41.3259L50.9118 42.0921C50.5484 41.4635 50.1358 41.0214 49.6741 40.766C49.2223 40.5008 48.6722 40.3682 48.0239 40.3682C47.5032 40.3682 47.071 40.4419 46.7272 40.5892C46.3932 40.7366 46.1477 40.933 45.9905 41.1786C45.8333 41.4143 45.7547 41.6845 45.7547 41.989C45.7547 42.3328 45.8628 42.6373 46.0789 42.9025C46.295 43.1579 46.7272 43.3593 47.3755 43.5066L49.4826 43.9782C50.4158 44.1844 51.0641 44.4988 51.4276 44.9212C51.8008 45.3337 51.9875 45.8494 51.9875 46.4683C51.9875 47.0184 51.8303 47.5095 51.516 47.9418C51.2114 48.3641 50.7792 48.6932 50.2193 48.929C49.6594 49.1647 49.0013 49.2826 48.2449 49.2826C47.5376 49.2826 46.9139 49.1893 46.3736 49.0026C45.8432 48.8062 45.3864 48.5459 45.0033 48.2217C44.6202 47.8976 44.3058 47.5341 44.0603 47.1314L45.0917 46.2915C45.2783 46.6648 45.519 46.9938 45.8137 47.2787C46.1084 47.5636 46.462 47.7846 46.8746 47.9418C47.297 48.0989 47.7783 48.1775 48.3186 48.1775C48.8195 48.1775 49.2517 48.1186 49.6152 48.0007C49.9885 47.873 50.2733 47.6913 50.4698 47.4555C50.6663 47.2099 50.7645 46.9152 50.7645 46.5714C50.7645 46.2571 50.6614 45.9771 50.4551 45.7316C50.2488 45.4762 49.8608 45.2846 49.291 45.1569L47.0072 44.6412C46.408 44.5037 45.9217 44.3171 45.5485 44.0813C45.185 43.8357 44.9198 43.5509 44.7528 43.2267C44.5956 42.8927 44.517 42.5342 44.517 42.1511C44.517 41.6304 44.6595 41.154 44.9443 40.7218C45.239 40.2798 45.6565 39.9261 46.1968 39.6609C46.7469 39.3957 47.3952 39.2631 48.1417 39.2631ZM55.3431 41.768V49.1353H54.1644V41.768H55.3431ZM54.7538 40.3535C54.4885 40.3535 54.2724 40.2749 54.1054 40.1177C53.9483 39.9507 53.8697 39.7346 53.8697 39.4694C53.8697 39.2042 53.9483 38.993 54.1054 38.8358C54.2724 38.6688 54.4885 38.5853 54.7538 38.5853C55.019 38.5853 55.2302 38.6688 55.3874 38.8358C55.5543 38.993 55.6378 39.2042 55.6378 39.4694C55.6378 39.7346 55.5543 39.9507 55.3874 40.1177C55.2302 40.2749 55.019 40.3535 54.7538 40.3535ZM60.7305 49.2826C60.0036 49.2826 59.3405 49.1303 58.7413 48.8258C58.1421 48.5115 57.6804 48.0793 57.3563 47.5292L58.3582 46.8072C58.5743 47.2689 58.8936 47.6274 59.316 47.8828C59.7383 48.1284 60.2393 48.2512 60.8189 48.2512C61.3297 48.2512 61.7324 48.1529 62.0271 47.9565C62.3316 47.7502 62.4839 47.485 62.4839 47.1608C62.4839 46.9349 62.4102 46.7433 62.2629 46.5862C62.1253 46.4192 61.8798 46.2964 61.5261 46.2178L59.758 45.8494C59.0606 45.7021 58.5498 45.4614 58.2256 45.1275C57.9113 44.7836 57.7541 44.3514 57.7541 43.8308C57.7541 43.4281 57.872 43.0597 58.1077 42.7257C58.3435 42.3917 58.6775 42.1265 59.1097 41.9301C59.5419 41.7238 60.038 41.6206 60.5979 41.6206C61.3149 41.6206 61.924 41.7631 62.425 42.0479C62.9357 42.3328 63.3139 42.7355 63.5595 43.2562L62.5723 43.9045C62.4151 43.4919 62.1548 43.1825 61.7914 42.9762C61.4279 42.7601 61.0301 42.652 60.5979 42.652C60.2541 42.652 59.9545 42.7012 59.6991 42.7994C59.4437 42.8976 59.2472 43.0351 59.1097 43.212C58.982 43.3789 58.9181 43.5705 58.9181 43.7866C58.9181 44.0224 58.9967 44.2286 59.1539 44.4055C59.3209 44.5724 59.591 44.6952 59.9643 44.7738L61.8061 45.1569C62.4642 45.2944 62.9357 45.5155 63.2206 45.82C63.5153 46.1245 63.6627 46.5125 63.6627 46.984C63.6627 47.6814 63.3925 48.2414 62.8523 48.6637C62.312 49.0763 61.6047 49.2826 60.7305 49.2826ZM67.5871 39.6757V47.1019C67.5871 47.4653 67.6903 47.7355 67.8965 47.9123C68.1028 48.0891 68.368 48.1775 68.6922 48.1775C68.9771 48.1775 69.2226 48.1284 69.4289 48.0302C69.6352 47.9319 69.8219 47.7993 69.9888 47.6323L70.4014 48.6195C70.1755 48.8258 69.9054 48.9879 69.591 49.1058C69.2865 49.2237 68.9329 49.2826 68.5301 49.2826C68.1568 49.2826 67.8081 49.2187 67.484 49.0911C67.1598 48.9535 66.8995 48.7423 66.703 48.4575C66.5164 48.1628 66.4182 47.7797 66.4083 47.3082V39.9998L67.5871 39.6757ZM70.2688 41.768V42.7847H64.9349V41.768H70.2688ZM75.1009 49.2826C74.4035 49.2826 73.7797 49.1303 73.2296 48.8258C72.6894 48.5115 72.267 48.0695 71.9625 47.4997C71.658 46.9202 71.5057 46.2375 71.5057 45.4516C71.5057 44.6756 71.6531 43.9978 71.9477 43.4182C72.2523 42.8387 72.6697 42.3966 73.2002 42.0921C73.7306 41.7778 74.3397 41.6206 75.0273 41.6206C75.6952 41.6206 76.2748 41.768 76.7659 42.0627C77.2571 42.3475 77.6304 42.7454 77.8858 43.2562C78.151 43.767 78.2836 44.3367 78.2836 44.9654C78.2836 45.1225 78.2787 45.2748 78.2689 45.4221C78.259 45.5597 78.2443 45.6825 78.2247 45.7905H72.2719V44.7444H77.709L77.0901 45.2011C77.1589 44.4055 77.0017 43.7817 76.6186 43.3298C76.2355 42.878 75.6952 42.652 74.9978 42.652C74.5165 42.652 74.099 42.765 73.7454 42.9909C73.4016 43.207 73.1314 43.5263 72.935 43.9487C72.7483 44.3711 72.655 44.8721 72.655 45.4516C72.655 46.0312 72.7532 46.5321 72.9497 46.9545C73.1462 47.3769 73.4261 47.7011 73.7896 47.927C74.153 48.1431 74.5803 48.2512 75.0715 48.2512C75.5921 48.2512 76.0243 48.1529 76.3681 47.9565C76.7119 47.76 76.9919 47.4752 77.208 47.1019L78.1363 47.6471C77.8514 48.1579 77.4486 48.5606 76.928 48.8553C76.4074 49.1402 75.7984 49.2826 75.1009 49.2826ZM80.5254 49.1353V41.768H81.5569L81.6305 42.9173C81.8958 42.4654 82.2396 42.1363 82.662 41.9301C83.0942 41.7238 83.5362 41.6206 83.9881 41.6206C84.5087 41.6206 84.9998 41.7385 85.4615 41.9743C85.9232 42.21 86.2768 42.5735 86.5224 43.0646C86.6796 42.7306 86.9006 42.4605 87.1855 42.2542C87.4703 42.0381 87.7798 41.8809 88.1137 41.7827C88.4576 41.6747 88.7817 41.6206 89.0862 41.6206C89.5577 41.6206 90.0047 41.7189 90.4271 41.9153C90.8593 42.1118 91.2129 42.4163 91.488 42.8289C91.763 43.2414 91.9005 43.7719 91.9005 44.4202V49.1353H90.7218V44.5381C90.7218 43.8701 90.5548 43.3888 90.2208 43.0941C89.8868 42.7994 89.4742 42.652 88.9831 42.652C88.6 42.652 88.2414 42.7454 87.9075 42.932C87.5735 43.1186 87.3033 43.3937 87.0971 43.7571C86.9006 44.1206 86.8024 44.5675 86.8024 45.098V49.1353H85.6236V44.5381C85.6236 43.8701 85.4566 43.3888 85.1226 43.0941C84.7886 42.7994 84.3761 42.652 83.8849 42.652C83.5608 42.652 83.2268 42.7405 82.883 42.9173C82.549 43.0843 82.269 43.3544 82.0431 43.7277C81.8172 44.1009 81.7042 44.5921 81.7042 45.2011V49.1353H80.5254ZM95.6892 38.379V47.264C95.6892 47.6372 95.7579 47.8976 95.8954 48.0449C96.033 48.1824 96.254 48.2512 96.5585 48.2512C96.755 48.2512 96.917 48.2364 97.0447 48.207C97.1724 48.1775 97.3443 48.1235 97.5604 48.0449L97.3689 49.0763C97.2117 49.1451 97.0398 49.1942 96.8532 49.2237C96.6665 49.263 96.475 49.2826 96.2785 49.2826C95.6793 49.2826 95.2324 49.1205 94.9377 48.7964C94.6528 48.4722 94.5104 47.9761 94.5104 47.3082V38.379H95.6892ZM102.153 49.2826C101.455 49.2826 100.831 49.1303 100.281 48.8258C99.7411 48.5115 99.3187 48.0695 99.0142 47.4997C98.7097 46.9202 98.5574 46.2375 98.5574 45.4516C98.5574 44.6756 98.7048 43.9978 98.9995 43.4182C99.304 42.8387 99.7215 42.3966 100.252 42.0921C100.782 41.7778 101.391 41.6206 102.079 41.6206C102.747 41.6206 103.327 41.768 103.818 42.0627C104.309 42.3475 104.682 42.7454 104.938 43.2562C105.203 43.767 105.335 44.3367 105.335 44.9654C105.335 45.1225 105.33 45.2748 105.321 45.4221C105.311 45.5597 105.296 45.6825 105.276 45.7905H99.3236V44.7444H104.761L104.142 45.2011C104.211 44.4055 104.053 43.7817 103.67 43.3298C103.287 42.878 102.747 42.652 102.05 42.652C101.568 42.652 101.151 42.765 100.797 42.9909C100.453 43.207 100.183 43.5263 99.9867 43.9487C99.8001 44.3711 99.7067 44.8721 99.7067 45.4516C99.7067 46.0312 99.805 46.5321 100.001 46.9545C100.198 47.3769 100.478 47.7011 100.841 47.927C101.205 48.1431 101.632 48.2512 102.123 48.2512C102.644 48.2512 103.076 48.1529 103.42 47.9565C103.764 47.76 104.044 47.4752 104.26 47.1019L105.188 47.6471C104.903 48.1579 104.5 48.5606 103.98 48.8553C103.459 49.1402 102.85 49.2826 102.153 49.2826ZM107.577 49.1353V41.768H108.535L108.697 42.9762C108.903 42.5243 109.203 42.1854 109.596 41.9595C109.999 41.7336 110.485 41.6206 111.055 41.6206C111.182 41.6206 111.32 41.6304 111.467 41.6501C111.624 41.6697 111.757 41.709 111.865 41.768L111.659 42.8436C111.551 42.8043 111.433 42.7748 111.305 42.7552C111.177 42.7355 110.996 42.7257 110.76 42.7257C110.455 42.7257 110.146 42.8141 109.832 42.9909C109.527 43.1678 109.272 43.4379 109.065 43.8013C108.859 44.155 108.756 44.6068 108.756 45.1569V49.1353H107.577ZM114.771 41.768V49.1353H113.592V41.768H114.771ZM114.181 40.3535C113.916 40.3535 113.7 40.2749 113.533 40.1177C113.376 39.9507 113.297 39.7346 113.297 39.4694C113.297 39.2042 113.376 38.993 113.533 38.8358C113.7 38.6688 113.916 38.5853 114.181 38.5853C114.446 38.5853 114.658 38.6688 114.815 38.8358C114.982 38.993 115.065 39.2042 115.065 39.4694C115.065 39.7346 114.982 39.9507 114.815 40.1177C114.658 40.2749 114.446 40.3535 114.181 40.3535Z" fill="#726F70"/>
</svg>
