<svg width="158" height="30" viewBox="0 0 158 30" fill="none" xmlns="http://www.w3.org/2000/svg">
<g clip-path="url(#clip0_2001_1321)">
<path d="M153.03 0H132.786C130.145 0 128.004 2.14092 128.004 4.78189V25.0258C128.004 27.6668 130.145 29.8077 132.786 29.8077H153.03C155.671 29.8077 157.812 27.6668 157.812 25.0258V4.78189C157.812 2.14092 155.671 0 153.03 0Z" fill="url(#paint0_linear_2001_1321)"/>
<path d="M14.9597 5.74944C14.9597 6.27973 14.5689 6.61464 14.0945 6.61464H8.54042V23.9467C8.54042 24.5049 8.12177 24.9514 7.47984 24.9514C6.89374 24.9514 6.44718 24.5049 6.44718 23.9467V6.61464H0.893116C0.390738 6.61464 0 6.27973 0 5.74944C0 5.21915 0.390738 4.85632 0.893116 4.85632H14.0945C14.5689 4.85632 14.9597 5.21915 14.9597 5.74944Z" fill="black"/>
<path d="M25.5189 16.1598V24.0583C25.5189 24.6165 25.2677 24.9514 24.6537 24.9514C24.0955 24.9514 23.7885 24.6444 23.7606 24.0583L23.6768 22.4116C22.7 23.9188 20.9975 25.0073 18.5414 25.0073C15.6946 25.0073 14.1038 23.4722 14.1038 21.072C14.1038 18.4763 15.9179 16.8018 19.8532 16.8018C21.3324 16.8018 22.6721 16.9692 23.5931 17.2204V16.1598C23.5931 13.8154 22.4767 12.699 19.8532 12.699C18.4856 12.699 17.2576 13.1456 16.4482 14.4573C16.2249 14.7922 15.9179 14.9318 15.6667 14.9318C15.2481 14.9318 14.8573 14.6248 14.8573 14.1224C14.9131 13.8433 14.9969 13.5363 15.2202 13.2014C16.0575 11.9454 17.6762 11.0244 19.909 11.0244C23.8164 11.0244 25.5189 12.7827 25.5189 16.1598ZM23.5931 19.9556V18.7554C22.7 18.5322 21.3324 18.3089 20.0207 18.3089C17.3134 18.3089 16.0854 19.2299 16.0854 20.9603C16.0854 22.6907 17.1738 23.3885 18.9601 23.3885C21.4999 23.3885 23.4815 21.6023 23.5931 19.9556Z" fill="black"/>
<path d="M32.1335 5.58195V23.9839C32.1335 24.542 31.7149 24.9607 31.1009 24.9607C30.4869 24.9607 30.124 24.542 30.124 23.9839V5.58195C30.124 5.05166 30.5148 4.6051 31.1009 4.6051C31.687 4.6051 32.1335 5.05166 32.1335 5.58195Z" fill="black"/>
<path d="M42.8788 23.2489C44.051 23.2489 44.9441 22.9698 45.614 22.6628C46.1164 22.4395 46.4234 22.2162 46.7862 22.2162C47.2886 22.2162 47.5677 22.6349 47.5677 23.0535C47.5677 23.3605 47.4002 23.7234 47.0932 23.8908C46.0047 24.5327 44.7209 25.0072 42.6555 25.0072C38.4411 25.0072 36.1246 22.4116 36.1246 17.8902C36.1246 13.7316 38.497 10.9965 42.3206 10.9965C46.1443 10.9965 47.9584 13.8154 47.9584 17.3878C47.9584 18.1414 47.5677 18.5042 46.8141 18.5042H38.1621C38.3016 21.6859 39.9204 23.2489 42.8788 23.2489ZM38.2179 16.9134H45.9489C45.8094 13.9549 44.358 12.7548 42.3485 12.7548C40.1157 12.7548 38.5249 13.8991 38.2179 16.9134Z" fill="black"/>
<path d="M63.681 16.2714V23.9745C63.681 24.5327 63.2903 24.9514 62.6763 24.9514C62.0622 24.9514 61.6715 24.5327 61.6715 23.9745V16.5226C61.6715 14.1224 60.6388 12.8106 58.0153 12.8106C55.3918 12.8106 53.7451 14.7922 53.7451 16.8017H53.7172L53.7451 23.9745C53.7451 24.5327 53.3265 24.9514 52.7124 24.9514C52.0984 24.9514 51.7356 24.5327 51.7356 23.9745V11.9733C51.7356 11.3872 52.1263 11.0244 52.6008 11.0244C53.1869 11.0244 53.466 11.3872 53.4939 11.9733L53.6056 13.7595C54.4987 12.1687 56.1733 10.9965 58.6293 10.9965C62.0902 10.9965 63.681 12.9781 63.681 16.2714Z" fill="black"/>
<path d="M70.7701 12.978V21.351C70.7701 22.886 71.4678 23.2489 72.5005 23.2489C72.8075 23.2489 73.0587 23.221 73.6448 23.1093C74.3147 22.9977 74.6496 23.4442 74.6496 23.8908C74.6496 24.3095 74.3984 24.7002 73.9239 24.7839C73.3378 24.9235 72.668 25.0072 71.9981 25.0072C69.9328 25.0072 68.7606 24.2815 68.7606 21.3789V12.978H67.1139C66.6674 12.978 66.2766 12.6431 66.2766 12.1408C66.2766 11.5826 66.6674 11.2755 67.1139 11.2755H68.7606V8.34501C68.7606 7.78681 69.1792 7.36816 69.7933 7.36816C70.4073 7.36816 70.7701 7.78681 70.7701 8.34501V11.2755H74.1751C74.6217 11.2755 75.0124 11.5826 75.0124 12.1408C75.0124 12.6431 74.6217 12.978 74.1751 12.978H70.7701Z" fill="black"/>
<path d="M78.4825 24.0025C77.7569 23.6955 77.3103 23.249 77.3103 22.3838C77.3103 21.3511 77.9522 20.7371 78.9291 20.7371C79.1244 20.7371 79.3198 20.765 79.5431 20.8208C80.3246 20.9883 81.8038 21.6581 84.2878 21.6581C87.0508 21.6581 88.3626 20.7371 88.3626 19.3974C88.3626 14.9318 77.6452 17.7228 77.6452 10.243C77.6452 6.83797 80.2408 4.57727 85.0413 4.57727C87.5811 4.57727 90.1488 5.27502 91.2094 7.08916C91.4606 7.45199 91.5722 7.84272 91.5722 8.20555C91.5722 9.21031 90.735 9.85223 89.9535 9.85223C89.172 9.85223 88.6696 9.54523 88.1393 9.04285C87.4137 8.42883 86.7717 7.73109 84.7622 7.73109C82.7527 7.73109 81.441 8.76375 81.441 10.0755C81.441 14.7365 92.1304 11.9176 92.1304 19.3416C92.1304 23.0257 89.172 25.0073 84.4831 25.0073C82.362 25.0073 79.8222 24.6445 78.4825 24.0025Z" fill="#0079C1"/>
<path d="M107.295 12.6152C107.295 12.9222 107.183 13.2851 107.044 13.5921L101.517 26.5143C100.373 29.1658 98.6148 29.9752 96.2704 29.9752C95.9355 29.9752 95.7401 29.9752 95.5726 29.9473C94.7912 29.8914 94.0655 29.2774 94.0655 28.3564C94.0655 27.4912 94.6795 26.8214 95.5168 26.8493C95.6564 26.8493 95.7959 26.8772 96.0471 26.8772C97.4426 26.8772 98.252 26.3469 98.6985 25.2305L99.0055 24.4769L94.2888 13.62C94.1213 13.2851 94.0376 12.9222 94.0376 12.6152C94.0376 11.5826 94.9028 10.9965 95.768 10.9965C96.4658 10.9965 97.1635 11.3872 97.4426 12.1129L100.736 20.0951L103.89 12.0849C104.169 11.3593 104.839 10.9965 105.564 10.9965C106.402 10.9965 107.295 11.5267 107.295 12.6152Z" fill="#0079C1"/>
<path d="M109.946 24.142C109.388 23.9187 108.997 23.4163 108.997 22.7744C108.997 21.9929 109.556 21.3789 110.365 21.3789C111.174 21.3789 111.9 22.1325 114.551 22.1325C116.282 22.1325 116.952 21.6859 116.952 20.8766C116.952 18.3926 109.081 20.2346 109.081 15.0992C109.081 12.7269 110.867 10.9965 114.803 10.9965C116.868 10.9965 118.822 11.7779 119.603 12.8385C119.854 13.1734 119.966 13.5363 119.966 13.8712C119.966 14.6247 119.38 15.2108 118.57 15.2108C117.956 15.2108 117.51 14.848 117.063 14.4852C116.505 13.8433 115.64 13.62 114.579 13.62C113.212 13.62 112.542 14.0665 112.542 14.9038C112.542 17.4995 120.468 15.5737 120.524 20.8207C120.524 23.3605 118.57 25.0072 114.523 25.0072C112.654 25.0072 111.118 24.6723 109.946 24.142Z" fill="#0079C1"/>
<path d="M132.86 4.85632C138.414 4.85632 142.908 9.35912 142.908 14.9039C142.908 9.34981 147.411 4.85632 152.955 4.85632H132.851H132.86Z" fill="white"/>
<path d="M132.86 24.9514H142.908V14.9038C142.908 20.4579 138.405 24.9514 132.86 24.9514Z" fill="white"/>
</g>
<defs>
<linearGradient id="paint0_linear_2001_1321" x1="129.344" y1="1.33037" x2="156.379" y2="28.3657" gradientUnits="userSpaceOnUse">
<stop stop-color="#00AEEF"/>
<stop offset="1" stop-color="#0079C1"/>
</linearGradient>
<clipPath id="clip0_2001_1321">
<rect width="157.5" height="30" fill="white"/>
</clipPath>
</defs>
</svg>
