<svg width="120" height="37" viewBox="0 0 120 37" fill="none" xmlns="http://www.w3.org/2000/svg">
<path d="M22.2119 1.12892V14H19.7742V7.29144L19.9107 3.52762H19.8717L16.3029 14H14.0992L10.5499 3.52762H10.5109L10.6474 7.29144V14H8.20969V1.12892H12.11L14.4307 8.14951L15.2498 11.0553H15.2888L16.1274 8.16901L18.4285 1.12892H22.2119ZM36.3047 1.12892V8.92958C36.3047 10.6847 35.8367 12.0043 34.9006 12.8884C33.9645 13.7595 32.5994 14.195 30.8052 14.195C29.0111 14.195 27.646 13.7595 26.7099 12.8884C25.7738 12.0043 25.3058 10.6847 25.3058 8.92958V1.12892H27.997V8.81257C27.997 9.89166 28.2245 10.6912 28.6796 11.2113C29.1476 11.7313 29.8562 11.9913 30.8052 11.9913C31.7543 11.9913 32.4564 11.7313 32.9114 11.2113C33.3664 10.6912 33.594 9.89166 33.594 8.81257V1.12892H36.3047ZM50.4621 1.12892V14H47.7709V1.12892H50.4621ZM42.0959 1.12892V14H39.4047V1.12892H42.0959ZM49.175 6.41387V8.57855H40.7503V6.41387H49.175ZM52.3783 14L57.0782 1.12892H60.296L64.9959 14H62.2071L59.2624 5.24377L58.6773 3.2936H58.6383L58.0923 5.20476L55.128 14H52.3783ZM55.1475 10.8602V8.87107H62.2071V10.8602H55.1475ZM71.5097 0.933907C72.6798 0.933907 73.7069 1.13542 74.591 1.53846C75.475 1.94149 76.2291 2.53954 76.8532 3.33261L75.3515 5.06825C74.8185 4.3922 74.2334 3.89815 73.5964 3.58613C72.9723 3.2611 72.2443 3.09859 71.4122 3.09859C70.8662 3.09859 70.4111 3.17009 70.0471 3.31311C69.6961 3.45612 69.436 3.64463 69.267 3.87865C69.111 4.11267 69.033 4.37269 69.033 4.65872C69.033 5.00975 69.1695 5.30877 69.4425 5.55579C69.7156 5.78981 70.1836 5.98483 70.8467 6.14084L73.2454 6.68689C74.5195 6.97291 75.4295 7.40195 75.9756 7.974C76.5346 8.53304 76.8142 9.2611 76.8142 10.1582C76.8142 11.0032 76.5931 11.7313 76.1511 12.3424C75.7091 12.9404 75.0915 13.4019 74.2984 13.727C73.5054 14.039 72.5953 14.195 71.5682 14.195C70.6711 14.195 69.8456 14.091 69.0915 13.883C68.3504 13.662 67.6874 13.3629 67.1023 12.9859C66.5173 12.6089 66.0298 12.1733 65.6397 11.6793L67.1608 9.86565C67.4599 10.2817 67.8304 10.6522 68.2724 10.9772C68.7145 11.3023 69.215 11.5623 69.7741 11.7573C70.3461 11.9393 70.9442 12.0303 71.5682 12.0303C72.0883 12.0303 72.5303 11.9718 72.8943 11.8548C73.2714 11.7248 73.5574 11.5493 73.7524 11.3283C73.9474 11.0943 74.0449 10.8147 74.0449 10.4897C74.0449 10.1647 73.9344 9.87866 73.7134 9.63163C73.4924 9.38461 73.0698 9.1961 72.4458 9.06609L69.8326 8.48104C69.0785 8.29902 68.4285 8.065 67.8824 7.77898C67.3494 7.47995 66.9398 7.10292 66.6538 6.64789C66.3808 6.17985 66.2443 5.6273 66.2443 4.99025C66.2443 4.22318 66.4523 3.53412 66.8683 2.92307C67.2844 2.31202 67.8824 1.83098 68.6625 1.47995C69.4555 1.11592 70.4046 0.933907 71.5097 0.933907ZM79.3602 14V1.12892H89.0135V3.2936H82.0514V6.49187H87.5314V8.55904H82.0514V11.8353H89.2865V14H79.3602ZM91.7011 14V1.12892H97.337C98.8972 1.12892 100.048 1.43445 100.789 2.0455C101.53 2.65655 101.9 3.52112 101.9 4.63922C101.9 5.32827 101.692 5.93933 101.276 6.47237C100.86 7.00541 100.249 7.34344 99.4432 7.48645V7.50596C100.34 7.63597 101.029 7.974 101.51 8.52004C101.991 9.06609 102.232 9.71614 102.232 10.4702C102.232 11.5753 101.829 12.4399 101.023 13.0639C100.23 13.688 99.0662 14 97.532 14H91.7011ZM94.3143 11.9718H97.298C98.0261 11.9718 98.5656 11.8223 98.9167 11.5233C99.2677 11.2243 99.4432 10.8082 99.4432 10.2752C99.4432 9.72914 99.2677 9.31311 98.9167 9.02708C98.5656 8.74106 98.0261 8.59805 97.298 8.59805H94.3143V11.9718ZM94.3143 6.53088H96.986C98.4031 6.53088 99.1117 5.97833 99.1117 4.87324C99.1117 3.76814 98.4031 3.2156 96.986 3.2156H94.3143V6.53088ZM104.804 14V1.12892H114.457V3.2936H107.495V6.49187H112.975V8.55904H107.495V11.8353H114.73V14H104.804ZM12.4608 24.1289L7.89744 32.1831V37H5.20622V32.1831L0.642835 24.1289H3.50957L5.57675 27.9902L6.55183 29.9989L7.54641 27.9902L9.61359 24.1289H12.4608ZM11.1373 37L15.8372 24.1289H19.055L23.7549 37H20.9661L18.0214 28.2438L17.4363 26.2936H17.3973L16.8513 28.2048L13.887 37H11.1373ZM13.9065 33.8602V31.8711H20.9661V33.8602H13.9065ZM27.0292 35.7909L26.5416 34.8548H35.5514V37H24.845V34.9718L33.1527 25.338L33.6207 26.2741H25.001V24.1289H35.3173V26.1571L27.0292 35.7909ZM40.6961 24.1289V37H38.0049V24.1289H40.6961ZM46.7333 34.8353H53.5198V37H44.042V24.1289H46.7333V34.8353ZM58.4457 24.1289V37H55.7544V24.1289H58.4457ZM75.7937 24.1289V37H73.356V30.2914L73.4925 26.5276H73.4535L69.8847 37H67.6811L64.1318 26.5276H64.0928L64.2293 30.2914V37H61.7916V24.1289H65.6919L68.0126 31.1495L68.8317 34.0553H68.8707L69.7092 31.169L72.0104 24.1289H75.7937ZM81.8324 34.8353H88.619V37H79.1412V24.1289H81.8324V34.8353ZM89.4105 37L94.1104 24.1289H97.3281L102.028 37H99.2393L96.2945 28.2438L95.7095 26.2936H95.6705L95.1244 28.2048L92.1602 37H89.4105ZM92.1797 33.8602V31.8711H99.2393V33.8602H92.1797ZM109.612 24.1289C111.068 24.1289 112.212 24.48 113.044 25.182C113.877 25.8841 114.293 26.8266 114.293 28.0097C114.293 29.2709 113.877 30.2394 113.044 30.9155C112.212 31.5785 111.075 31.9101 109.632 31.9101L109.359 32.0661H106.589V37H103.937V24.1289H109.612ZM109.3 30.0184C110.054 30.0184 110.613 29.8689 110.977 29.5699C111.354 29.2579 111.543 28.7833 111.543 28.1463C111.543 27.5092 111.354 27.0412 110.977 26.7421C110.613 26.4301 110.054 26.2741 109.3 26.2741H106.589V30.0184H109.3ZM110.88 30.584L115.053 37H112.03L108.579 31.364L110.88 30.584ZM119.883 24.1289V37H117.192V24.1289H119.883Z" fill="#726F70"/>
</svg>
