<svg width="211" height="60" viewBox="0 0 211 60" fill="none" xmlns="http://www.w3.org/2000/svg">
<g clip-path="url(#clip0_1_297)">
<path d="M9.88629 51.6643C9.88629 53.4133 8.72028 54.3932 6.59913 54.3932H5.0858V57.3455C5.0858 57.5936 4.88733 57.792 4.60203 57.792C4.34153 57.792 4.15547 57.5936 4.15547 57.3455V49.4687C4.15547 49.109 4.35394 48.9105 4.71367 48.9105H6.62394C8.75749 48.9105 9.88629 49.8904 9.88629 51.6643ZM8.96837 51.6643C8.96837 50.337 8.24891 49.7292 6.61154 49.7292H5.07339V53.5869H6.59913C8.24891 53.5869 8.96837 52.9667 8.96837 51.6643Z" fill="#0079C1"/>
<path d="M13.4588 57.023C13.9797 57.023 14.3767 56.8989 14.662 56.7625C14.8853 56.6632 15.0217 56.564 15.183 56.564C15.4062 56.564 15.5303 56.7501 15.5303 56.9361C15.5303 57.0726 15.4559 57.2338 15.3194 57.3083C14.8356 57.5936 14.2774 57.8044 13.3595 57.8044C11.4989 57.8044 10.4817 56.6632 10.4817 54.6661C10.4817 52.8303 11.5237 51.627 13.2231 51.627C14.9225 51.627 15.7164 52.8675 15.7164 54.4428C15.7164 54.7778 15.5427 54.939 15.2078 54.939H11.3872C11.4492 56.3407 12.1687 57.0354 13.4712 57.0354L13.4588 57.023ZM11.3996 54.232H14.8108C14.7488 52.9295 14.1038 52.3961 13.2231 52.3961C12.2431 52.3961 11.5361 52.9047 11.3996 54.232Z" fill="#0079C1"/>
<path d="M16.7211 54.7157C16.7211 52.5822 17.8747 51.6146 19.6237 51.6146C21.3728 51.6146 22.5264 52.607 22.5264 54.7157C22.5264 56.8245 21.3728 57.792 19.6237 57.792C17.8747 57.792 16.7211 56.7997 16.7211 54.7157ZM21.6332 54.7157C21.6332 53.2024 20.8766 52.3837 19.6361 52.3837C18.3957 52.3837 17.639 53.2024 17.639 54.7157C17.639 56.2291 18.3957 57.023 19.6361 57.023C20.8766 57.023 21.6332 56.2291 21.6332 54.7157Z" fill="#0079C1"/>
<path d="M29.3116 54.6289C29.3116 56.6508 28.2572 57.792 26.2601 57.792C25.6399 57.792 25.1685 57.668 24.7964 57.5067V59.541C24.7964 59.7767 24.6103 59.9752 24.3374 59.9752C24.0645 59.9752 23.9032 59.7767 23.9032 59.541V52.0364C23.9032 51.7759 24.0769 51.6146 24.2878 51.6146C24.5483 51.6146 24.6723 51.7759 24.6847 52.0364L24.7219 52.669C25.0817 52.0488 25.7143 51.6146 26.6942 51.6146C28.3192 51.6146 29.324 52.5946 29.324 54.6289H29.3116ZM28.406 54.6661C28.406 53.128 27.7114 52.3837 26.5454 52.3837C25.4786 52.3837 24.784 53.1776 24.784 54.0211V56.6756C25.1313 56.8493 25.6026 57.023 26.2353 57.023C27.5625 57.023 28.4184 56.2911 28.4184 54.6661H28.406Z" fill="#0079C1"/>
<path d="M31.594 49.2206V57.3455C31.594 57.5935 31.4079 57.7796 31.135 57.7796C30.8621 57.7796 30.7009 57.5935 30.7009 57.3455V49.2206C30.7009 48.9849 30.8745 48.7864 31.135 48.7864C31.4079 48.7864 31.594 48.9849 31.594 49.2206Z" fill="#0079C1"/>
<path d="M35.9727 57.023C36.4937 57.023 36.8906 56.8989 37.1759 56.7625C37.3992 56.6632 37.5357 56.564 37.6969 56.564C37.9202 56.564 38.0442 56.7501 38.0442 56.9361C38.0442 57.0726 37.9698 57.2338 37.8334 57.3083C37.3496 57.5936 36.7914 57.8044 35.8735 57.8044C34.0128 57.8044 32.9957 56.6632 32.9957 54.6661C32.9957 52.8303 34.0376 51.627 35.737 51.627C37.4364 51.627 38.2303 52.8675 38.2303 54.4428C38.2303 54.7778 38.0566 54.939 37.7217 54.939H33.9012C33.9632 56.3407 34.6827 57.0354 35.9851 57.0354L35.9727 57.023ZM33.9136 54.232H37.3248C37.2628 52.9295 36.6177 52.3961 35.737 52.3961C34.7571 52.3961 34.05 52.9047 33.9136 54.232Z" fill="#0079C1"/>
<path d="M48.6996 56.5764L49.4563 57.2834C49.5307 57.3579 49.5803 57.4447 49.5803 57.5687C49.5803 57.7796 49.4315 57.9657 49.2082 57.9657C49.0717 57.9657 48.9849 57.9161 48.9229 57.854L48.0918 57.0726C47.3227 57.606 46.3552 57.9285 45.1147 57.9285C43.1672 57.9285 42.2121 57.1966 42.2121 55.8817C42.2121 54.7778 42.8447 54.1327 44.2216 53.4257C43.5022 52.731 43.0556 52.1356 43.0556 51.0688C43.0556 49.8532 43.7999 48.774 45.4745 48.774C47.1491 48.774 47.7445 49.7168 47.7445 50.7835C47.7445 52.0612 46.9754 52.7931 45.4993 53.5745L48.067 55.9686C48.8236 55.2243 49.3322 54.1575 49.6175 52.8303C49.6547 52.6442 49.8284 52.4953 50.0393 52.4953C50.2874 52.4953 50.4734 52.7062 50.4734 52.9295C50.4734 52.9543 50.4734 53.0039 50.4362 53.1776C50.1385 54.4925 49.6051 55.7205 48.7244 56.5888L48.6996 56.5764ZM47.4468 56.4523L44.7674 53.9343C43.527 54.6165 43.1921 54.9762 43.1921 55.7825C43.1921 56.5888 43.7503 57.0726 45.1892 57.0726C46.0699 57.0726 46.8017 56.8493 47.4468 56.4399V56.4523ZM44.9411 53.0535C46.2808 52.3713 46.8389 51.8999 46.8389 50.9696C46.8389 50.0889 46.2932 49.6051 45.4621 49.6051C44.4573 49.6051 43.9363 50.2129 43.9363 51.0564C43.9363 51.8627 44.1844 52.2969 44.9411 53.0535Z" fill="#0079C1"/>
<path d="M60.5086 49.295C60.5086 49.5307 60.3349 49.6796 60.124 49.6796H57.668V57.3331C57.668 57.5812 57.4819 57.7796 57.1966 57.7796C56.9361 57.7796 56.7376 57.5812 56.7376 57.3331V49.6796H54.2816C54.0583 49.6796 53.8846 49.5307 53.8846 49.295C53.8846 49.0593 54.0583 48.8981 54.2816 48.8981H60.1116C60.3225 48.8981 60.4962 49.0593 60.4962 49.295H60.5086Z" fill="#0079C1"/>
<path d="M64.8005 53.897V57.3827C64.8005 57.6308 64.6889 57.7796 64.416 57.7796C64.1679 57.7796 64.0314 57.6432 64.019 57.3827L63.9818 56.6508C63.5477 57.3207 62.8034 57.792 61.7118 57.792C60.459 57.792 59.7519 57.1098 59.7519 56.0554C59.7519 54.9142 60.5582 54.1699 62.2948 54.1699C62.9522 54.1699 63.5352 54.2444 63.9446 54.356V53.8846C63.9446 52.8551 63.4484 52.3589 62.2948 52.3589C61.687 52.3589 61.1536 52.5574 60.7939 53.1404C60.6946 53.2892 60.5582 53.3513 60.4466 53.3513C60.2605 53.3513 60.0868 53.2148 60.0868 52.9915C60.1116 52.8675 60.1488 52.731 60.2481 52.5822C60.6202 52.024 61.3273 51.627 62.3196 51.627C64.0438 51.627 64.8005 52.4085 64.8005 53.897ZM63.9446 55.5716V55.0383C63.5476 54.939 62.9522 54.8398 62.3692 54.8398C61.1784 54.8398 60.6326 55.2491 60.6326 56.0058C60.6326 56.7625 61.1164 57.0726 61.8979 57.0726C63.0143 57.0726 63.895 56.2787 63.9446 55.5592V55.5716Z" fill="#0079C1"/>
<path d="M67.3434 49.2206V57.3455C67.3434 57.5935 67.1573 57.7796 66.8844 57.7796C66.6115 57.7796 66.4503 57.5935 66.4503 57.3455V49.2206C66.4503 48.9849 66.6239 48.7864 66.8844 48.7864C67.1573 48.7864 67.3434 48.9849 67.3434 49.2206Z" fill="#0079C1"/>
<path d="M71.7097 57.023C72.2307 57.023 72.6277 56.8989 72.913 56.7625C73.1362 56.6632 73.2727 56.564 73.4339 56.564C73.6572 56.564 73.7813 56.7501 73.7813 56.9361C73.7813 57.0726 73.7068 57.2338 73.5704 57.3083C73.0866 57.5936 72.5284 57.8044 71.6105 57.8044C69.7498 57.8044 68.7327 56.6632 68.7327 54.6661C68.7327 52.8303 69.7746 51.627 71.474 51.627C73.1734 51.627 73.9673 52.8675 73.9673 54.4428C73.9673 54.7778 73.7937 54.939 73.4588 54.939H69.6382C69.7002 56.3407 70.4197 57.0354 71.7221 57.0354L71.7097 57.023ZM69.6506 54.232H73.0618C72.9998 52.9295 72.3548 52.3961 71.474 52.3961C70.4941 52.3961 69.7871 52.9047 69.6506 54.232Z" fill="#0079C1"/>
<path d="M80.5169 53.9467V57.3455C80.5169 57.5936 80.3432 57.7796 80.0703 57.7796C79.7974 57.7796 79.6237 57.5936 79.6237 57.3455V54.0583C79.6237 53.0039 79.1648 52.4209 78.0112 52.4209C76.8576 52.4209 76.1257 53.3016 76.1257 54.1823V57.3455C76.1257 57.5936 75.952 57.7796 75.6791 57.7796C75.4062 57.7796 75.245 57.5936 75.245 57.3455V52.0488C75.245 51.7883 75.4187 51.627 75.6295 51.627C75.89 51.627 76.0141 51.7883 76.0265 52.0488L76.0761 52.8427C76.473 52.1356 77.2049 51.627 78.2965 51.627C79.8222 51.627 80.5293 52.5078 80.5293 53.9591L80.5169 53.9467Z" fill="#0079C1"/>
<path d="M83.2706 52.4953V56.1919C83.2706 56.8741 83.5807 57.023 84.0397 57.023C84.1761 57.023 84.2878 57.0229 84.5483 56.9609C84.846 56.9113 84.9948 57.1098 84.9948 57.3083C84.9948 57.4943 84.8832 57.668 84.6723 57.7052C84.4118 57.7672 84.1141 57.8044 83.8164 57.8044C82.9109 57.8044 82.3899 57.4819 82.3899 56.2043V52.4953H81.6581C81.4596 52.4953 81.2859 52.3465 81.2859 52.1232C81.2859 51.8751 81.4596 51.7387 81.6581 51.7387H82.3899V50.4486C82.3899 50.2005 82.576 50.0145 82.8489 50.0145C83.1218 50.0145 83.283 50.2005 83.283 50.4486V51.7387H84.784C84.9824 51.7387 85.1561 51.8751 85.1561 52.1232C85.1561 52.3465 84.9824 52.4953 84.784 52.4953H83.283H83.2706Z" fill="#0079C1"/>
<path d="M97.4736 57.7796C97.2007 57.7796 96.9899 57.5687 96.9899 57.3206L96.8038 50.2129L94.1493 55.9314C93.9632 56.3283 93.7399 56.502 93.467 56.502C93.1693 56.502 92.946 56.3283 92.76 55.9314L90.0806 50.1633L89.907 57.3206C89.907 57.5687 89.6961 57.7796 89.4108 57.7796C89.1503 57.7796 88.9518 57.5811 88.9642 57.3331L89.1627 49.6671C89.1627 49.109 89.3612 48.7864 89.8201 48.7864C90.2791 48.7864 90.5148 49.0717 90.7009 49.4811L93.467 55.3856L96.2208 49.4687C96.4193 49.0345 96.6674 48.7864 97.0891 48.7864C97.5357 48.7864 97.7093 49.1214 97.7217 49.6671L97.9078 57.3331C97.9078 57.5811 97.7217 57.7796 97.4612 57.7796H97.4736Z" fill="#0079C1"/>
<path d="M104.296 53.897V57.3827C104.296 57.6308 104.184 57.7796 103.912 57.7796C103.663 57.7796 103.527 57.6432 103.515 57.3827L103.477 56.6508C103.043 57.3207 102.299 57.792 101.207 57.792C99.9545 57.792 99.2475 57.1098 99.2475 56.0554C99.2475 54.9142 100.054 54.1699 101.79 54.1699C102.448 54.1699 103.031 54.2444 103.44 54.356V53.8846C103.44 52.8551 102.944 52.3589 101.79 52.3589C101.183 52.3589 100.649 52.5574 100.289 53.1404C100.19 53.2892 100.054 53.3513 99.9421 53.3513C99.756 53.3513 99.5824 53.2148 99.5824 52.9915C99.6072 52.8675 99.6444 52.731 99.7436 52.5822C100.116 52.024 100.823 51.627 101.815 51.627C103.539 51.627 104.296 52.4085 104.296 53.897ZM103.44 55.5716V55.0383C103.043 54.939 102.448 54.8398 101.865 54.8398C100.674 54.8398 100.128 55.2491 100.128 56.0058C100.128 56.7625 100.612 57.0726 101.393 57.0726C102.51 57.0726 103.391 56.2787 103.44 55.5592V55.5716Z" fill="#0079C1"/>
<path d="M111.243 53.9467V57.3455C111.243 57.5936 111.069 57.7796 110.796 57.7796C110.523 57.7796 110.349 57.5936 110.349 57.3455V54.0583C110.349 53.0039 109.89 52.4209 108.737 52.4209C107.583 52.4209 106.851 53.3016 106.851 54.1823V57.3455C106.851 57.5936 106.678 57.7796 106.405 57.7796C106.132 57.7796 105.971 57.5936 105.971 57.3455V52.0488C105.971 51.7883 106.144 51.627 106.355 51.627C106.616 51.627 106.74 51.7883 106.752 52.0488L106.802 52.8427C107.199 52.1356 107.931 51.627 109.022 51.627C110.548 51.627 111.255 52.5078 111.255 53.9591L111.243 53.9467Z" fill="#0079C1"/>
<path d="M117.618 53.897V57.3827C117.618 57.6308 117.507 57.7796 117.234 57.7796C116.986 57.7796 116.849 57.6432 116.837 57.3827L116.8 56.6508C116.366 57.3207 115.621 57.792 114.53 57.792C113.277 57.792 112.57 57.1098 112.57 56.0554C112.57 54.9142 113.376 54.1699 115.113 54.1699C115.77 54.1699 116.353 54.2444 116.762 54.356V53.8846C116.762 52.8551 116.266 52.3589 115.113 52.3589C114.505 52.3589 113.971 52.5574 113.612 53.1404C113.512 53.2892 113.376 53.3513 113.264 53.3513C113.078 53.3513 112.905 53.2148 112.905 52.9915C112.929 52.8675 112.967 52.731 113.066 52.5822C113.438 52.024 114.145 51.627 115.137 51.627C116.862 51.627 117.618 52.4085 117.618 53.897ZM116.762 55.5716V55.0383C116.366 54.939 115.77 54.8398 115.187 54.8398C113.996 54.8398 113.45 55.2491 113.45 56.0058C113.45 56.7625 113.934 57.0726 114.716 57.0726C115.832 57.0726 116.713 56.2787 116.762 55.5592V55.5716Z" fill="#0079C1"/>
<path d="M124.49 58.0277C124.49 59.1937 123.56 60 121.575 60C119.591 60 118.822 59.3922 118.822 58.375C118.822 57.7176 119.181 57.3082 119.578 57.0354C119.305 56.8369 119.132 56.5268 119.132 56.1546C119.132 55.584 119.479 55.2243 119.95 54.939C119.529 54.6165 119.293 54.1327 119.293 53.5621C119.293 52.4705 120.112 51.6394 121.563 51.6394C122.034 51.6394 122.444 51.7263 122.766 51.8751C122.965 51.2177 123.51 50.7587 124.031 50.7463C124.28 50.7463 124.466 50.8704 124.466 51.1433C124.466 51.4162 124.292 51.503 124.106 51.565C123.721 51.7015 123.486 51.8007 123.287 52.2349C123.647 52.5574 123.833 53.0163 123.833 53.5373C123.833 54.6537 123.039 55.4104 121.551 55.4104C121.104 55.4104 120.707 55.336 120.397 55.2119C120.025 55.4476 119.888 55.6709 119.888 55.9438C119.888 56.4151 120.174 56.6136 120.781 56.6136H122.779C123.969 56.6136 124.49 57.2586 124.49 58.0649V58.0277ZM123.61 58.1517C123.61 57.6184 123.275 57.2958 122.543 57.2958H120.509C120.409 57.2958 120.31 57.2958 120.223 57.271C119.876 57.4819 119.64 57.7796 119.64 58.2014C119.64 58.834 120.124 59.2309 121.613 59.2309C122.952 59.2309 123.61 58.7844 123.61 58.1393V58.1517ZM120.136 53.5125C120.136 54.3064 120.657 54.7033 121.538 54.7033C122.419 54.7033 122.94 54.294 122.94 53.5125C122.94 52.731 122.444 52.2969 121.538 52.2969C120.633 52.2969 120.136 52.7558 120.136 53.5125Z" fill="#0079C1"/>
<path d="M127.976 57.023C128.497 57.023 128.894 56.8989 129.179 56.7625C129.403 56.6632 129.539 56.564 129.7 56.564C129.924 56.564 130.048 56.7501 130.048 56.9361C130.048 57.0726 129.973 57.2338 129.837 57.3083C129.353 57.5936 128.795 57.8044 127.877 57.8044C126.016 57.8044 124.999 56.6632 124.999 54.6661C124.999 52.8303 126.041 51.627 127.74 51.627C129.44 51.627 130.234 52.8675 130.234 54.4428C130.234 54.7778 130.06 54.939 129.725 54.939H125.904C125.967 56.3407 126.686 57.0354 127.988 57.0354L127.976 57.023ZM125.917 54.232H129.328C129.266 52.9295 128.621 52.3961 127.74 52.3961C126.76 52.3961 126.053 52.9047 125.917 54.232Z" fill="#0079C1"/>
<path d="M140.269 53.9715V57.3455C140.269 57.5936 140.083 57.7796 139.81 57.7796C139.537 57.7796 139.376 57.5936 139.376 57.3455V54.1079C139.376 53.0535 138.954 52.4209 138.036 52.4209C136.932 52.4209 136.312 53.2892 136.312 54.0707V57.3579C136.312 57.606 136.138 57.7796 135.865 57.7796C135.592 57.7796 135.431 57.606 135.431 57.3579V54.0459C135.431 53.0163 134.997 52.4209 134.104 52.4209C133.012 52.4209 132.404 53.2768 132.38 54.0459V57.3455C132.38 57.5936 132.206 57.7796 131.933 57.7796C131.66 57.7796 131.499 57.5936 131.499 57.3455V52.0488C131.499 51.7883 131.673 51.627 131.883 51.627C132.144 51.627 132.268 51.7883 132.28 52.0488L132.318 52.7558C132.69 52.0984 133.347 51.627 134.339 51.627C135.27 51.627 135.89 52.0612 136.163 52.8551C136.523 52.1356 137.217 51.627 138.259 51.627C139.537 51.627 140.269 52.4581 140.269 53.9839V53.9715Z" fill="#0079C1"/>
<path d="M144.511 57.023C145.032 57.023 145.429 56.8989 145.714 56.7625C145.938 56.6632 146.074 56.564 146.235 56.564C146.459 56.564 146.583 56.7501 146.583 56.9361C146.583 57.0726 146.508 57.2338 146.372 57.3083C145.888 57.5936 145.33 57.8044 144.412 57.8044C142.551 57.8044 141.534 56.6632 141.534 54.6661C141.534 52.8303 142.576 51.627 144.275 51.627C145.975 51.627 146.769 52.8675 146.769 54.4428C146.769 54.7778 146.595 54.939 146.26 54.939H142.44C142.502 56.3407 143.221 57.0354 144.523 57.0354L144.511 57.023ZM142.452 54.232H145.863C145.801 52.9295 145.156 52.3961 144.275 52.3961C143.295 52.3961 142.588 52.9047 142.452 54.232Z" fill="#0079C1"/>
<path d="M153.306 53.9467V57.3455C153.306 57.5936 153.132 57.7796 152.859 57.7796C152.586 57.7796 152.413 57.5936 152.413 57.3455V54.0583C152.413 53.0039 151.954 52.4209 150.8 52.4209C149.646 52.4209 148.915 53.3016 148.915 54.1823V57.3455C148.915 57.5936 148.741 57.7796 148.468 57.7796C148.195 57.7796 148.034 57.5936 148.034 57.3455V52.0488C148.034 51.7883 148.208 51.627 148.418 51.627C148.679 51.627 148.803 51.7883 148.815 52.0488L148.865 52.8427C149.262 52.1356 149.994 51.627 151.085 51.627C152.611 51.627 153.318 52.5078 153.318 53.9591L153.306 53.9467Z" fill="#0079C1"/>
<path d="M156.072 52.4953V56.1919C156.072 56.8741 156.382 57.023 156.841 57.023C156.977 57.023 157.089 57.0229 157.35 56.9609C157.647 56.9113 157.796 57.1098 157.796 57.3083C157.796 57.4943 157.685 57.668 157.474 57.7052C157.213 57.7672 156.915 57.8044 156.618 57.8044C155.712 57.8044 155.191 57.4819 155.191 56.2043V52.4953H154.459C154.261 52.4953 154.087 52.3465 154.087 52.1232C154.087 51.8751 154.261 51.7387 154.459 51.7387H155.191V50.4486C155.191 50.2005 155.377 50.0145 155.65 50.0145C155.923 50.0145 156.084 50.2005 156.084 50.4486V51.7387H157.585C157.784 51.7387 157.957 51.8751 157.957 52.1232C157.957 52.3465 157.784 52.4953 157.585 52.4953H156.084H156.072Z" fill="#0079C1"/>
<path d="M161.617 57.2586C161.431 57.147 161.319 57.0478 161.319 56.8369C161.319 56.5764 161.48 56.4151 161.716 56.4151C161.778 56.4151 161.84 56.4151 161.914 56.4523C162.262 56.5764 162.981 56.9857 164.222 56.9857C165.685 56.9857 166.504 56.3531 166.504 55.522C166.504 52.9419 161.455 54.4552 161.455 51.0688C161.455 49.7664 162.497 48.774 164.37 48.774C165.561 48.774 166.578 49.1834 167 49.9649C167.099 50.1509 167.149 50.3122 167.149 50.4238C167.149 50.6719 166.951 50.8332 166.74 50.8332C166.554 50.8332 166.38 50.7463 166.244 50.5106C166.02 50.0889 165.599 49.5431 164.37 49.5431C163.142 49.5431 162.361 50.2129 162.361 51.0068C162.361 53.711 167.397 52.1232 167.397 55.4848C167.397 56.8741 166.293 57.8044 164.246 57.8044C163.353 57.8044 162.287 57.6432 161.617 57.2586Z" fill="#0079C1"/>
<path d="M168.377 54.7157C168.377 52.5822 169.531 51.6146 171.28 51.6146C173.029 51.6146 174.182 52.607 174.182 54.7157C174.182 56.8245 173.029 57.792 171.28 57.792C169.531 57.792 168.377 56.7997 168.377 54.7157ZM173.277 54.7157C173.277 53.2024 172.52 52.3837 171.28 52.3837C170.039 52.3837 169.283 53.2024 169.283 54.7157C169.283 56.2291 170.039 57.023 171.28 57.023C172.52 57.023 173.277 56.2291 173.277 54.7157Z" fill="#0079C1"/>
<path d="M176.477 49.2206V57.3455C176.477 57.5935 176.291 57.7796 176.018 57.7796C175.745 57.7796 175.584 57.5935 175.584 57.3455V49.2206C175.584 48.9849 175.758 48.7864 176.018 48.7864C176.291 48.7864 176.477 48.9849 176.477 49.2206Z" fill="#0079C1"/>
<path d="M183.213 52.0612V57.3703C183.213 57.6308 183.064 57.7796 182.816 57.7796C182.555 57.7796 182.444 57.6184 182.419 57.3703L182.382 56.5764C181.935 57.3579 181.228 57.792 180.198 57.792C178.908 57.792 178.127 57.085 178.127 55.4104V52.0488C178.127 51.8131 178.313 51.6146 178.586 51.6146C178.859 51.6146 179.02 51.8131 179.02 52.0488V55.2739C179.02 56.4896 179.405 56.9857 180.385 56.9857C181.761 56.9857 182.32 56.0058 182.32 54.9762V52.0488C182.32 51.8007 182.493 51.6146 182.779 51.6146C183.027 51.6146 183.213 51.8007 183.213 52.0488V52.0612Z" fill="#0079C1"/>
<path d="M186.029 52.4953V56.1919C186.029 56.8741 186.339 57.023 186.798 57.023C186.934 57.023 187.046 57.0229 187.306 56.9609C187.604 56.9113 187.753 57.1098 187.753 57.3083C187.753 57.4943 187.641 57.668 187.43 57.7052C187.17 57.7672 186.872 57.8044 186.574 57.8044C185.669 57.8044 185.148 57.4819 185.148 56.2043V52.4953H184.416C184.217 52.4953 184.044 52.3465 184.044 52.1232C184.044 51.8751 184.217 51.7387 184.416 51.7387H185.148V50.4486C185.148 50.2005 185.334 50.0145 185.607 50.0145C185.88 50.0145 186.041 50.2005 186.041 50.4486V51.7387H187.542C187.74 51.7387 187.914 51.8751 187.914 52.1232C187.914 52.3465 187.74 52.4953 187.542 52.4953H186.041H186.029Z" fill="#0079C1"/>
<path d="M188.82 49.7912C188.82 49.4315 189.105 49.1338 189.452 49.1338C189.824 49.1338 190.097 49.4315 190.097 49.7912C190.097 50.1509 189.824 50.461 189.452 50.461C189.105 50.461 188.82 50.1633 188.82 49.7912ZM189.886 52.0736V57.3455C189.886 57.5935 189.713 57.7796 189.427 57.7796C189.179 57.7796 188.993 57.5935 188.993 57.3455V52.0736C188.993 51.8255 189.179 51.6394 189.427 51.6394C189.713 51.6394 189.886 51.8255 189.886 52.0736Z" fill="#0079C1"/>
<path d="M191.474 54.7157C191.474 52.5822 192.628 51.6146 194.377 51.6146C196.126 51.6146 197.279 52.607 197.279 54.7157C197.279 56.8245 196.126 57.792 194.377 57.792C192.628 57.792 191.474 56.7997 191.474 54.7157ZM196.374 54.7157C196.374 53.2024 195.617 52.3837 194.377 52.3837C193.136 52.3837 192.38 53.2024 192.38 54.7157C192.38 56.2291 193.136 57.023 194.377 57.023C195.617 57.023 196.374 56.2291 196.374 54.7157Z" fill="#0079C1"/>
<path d="M204.04 53.9467V57.3455C204.04 57.5936 203.866 57.7796 203.593 57.7796C203.32 57.7796 203.147 57.5936 203.147 57.3455V54.0583C203.147 53.0039 202.688 52.4209 201.534 52.4209C200.38 52.4209 199.649 53.3016 199.649 54.1823V57.3455C199.649 57.5936 199.475 57.7796 199.202 57.7796C198.929 57.7796 198.768 57.5936 198.768 57.3455V52.0488C198.768 51.7883 198.941 51.627 199.152 51.627C199.413 51.627 199.537 51.7883 199.549 52.0488L199.599 52.8427C199.996 52.1356 200.728 51.627 201.819 51.627C203.345 51.627 204.052 52.5078 204.052 53.9591L204.04 53.9467Z" fill="#0079C1"/>
<path d="M205.541 57.3827C205.379 57.2958 205.317 57.1718 205.317 57.0354C205.317 56.8245 205.441 56.6508 205.665 56.6508C205.975 56.6508 206.322 57.0478 207.538 57.0478C208.58 57.0478 209.113 56.7128 209.113 56.1298C209.113 54.5545 205.404 55.6337 205.404 53.3016C205.404 52.3465 206.111 51.6022 207.637 51.6022C208.667 51.6022 209.398 52.0116 209.684 52.4829C209.758 52.607 209.795 52.7558 209.795 52.8923C209.795 53.1032 209.646 53.252 209.411 53.252C209.237 53.252 209.125 53.19 209.014 53.0163C208.753 52.5326 208.27 52.3589 207.637 52.3589C206.694 52.3589 206.26 52.7186 206.26 53.2644C206.26 54.8522 210.006 53.8102 210.006 56.0554C210.006 57.0726 209.312 57.8044 207.575 57.8044C206.657 57.8044 206.037 57.6308 205.541 57.3827Z" fill="#0079C1"/>
<path d="M204.04 0H177.048C173.526 0 170.672 2.85457 170.672 6.37585V33.3678C170.672 36.8891 173.526 39.7436 177.048 39.7436H204.04C207.561 39.7436 210.416 36.8891 210.416 33.3678V6.37585C210.416 2.85457 207.561 0 204.04 0Z" fill="url(#paint0_linear_1_297)"/>
<path d="M19.9462 7.66591C19.9462 8.37296 19.4253 8.81952 18.7926 8.81952H11.3872V31.9289C11.3872 32.6731 10.829 33.2686 9.97312 33.2686C9.19165 33.2686 8.59624 32.6731 8.59624 31.9289V8.81952H1.19082C0.520984 8.81952 0 8.37296 0 7.66591C0 6.95886 0.520984 6.47509 1.19082 6.47509H18.7926C19.4253 6.47509 19.9462 6.95886 19.9462 7.66591Z" fill="#231F20"/>
<path d="M34.0252 21.5464V32.0777C34.0252 32.822 33.6903 33.2686 32.8716 33.2686C32.1274 33.2686 31.718 32.8592 31.6808 32.0777L31.5692 29.8822C30.2667 31.8917 27.9967 33.343 24.7219 33.343C20.9262 33.343 18.805 31.2963 18.805 28.0959C18.805 24.6351 21.2239 22.4023 26.471 22.4023C28.4433 22.4023 30.2295 22.6256 31.4575 22.9605V21.5464C31.4575 18.4205 29.969 16.932 26.471 16.932C24.6475 16.932 23.0101 17.5274 21.931 19.2764C21.6332 19.723 21.2239 19.909 20.889 19.909C20.3308 19.909 19.8098 19.4997 19.8098 18.8299C19.8842 18.4577 19.9959 18.0484 20.2936 17.6018C21.41 15.9272 23.5683 14.6992 26.5454 14.6992C31.7552 14.6992 34.0252 17.0436 34.0252 21.5464ZM31.4575 26.6074V25.0072C30.2667 24.7095 28.4433 24.4118 26.6942 24.4118C23.0846 24.4118 21.4472 25.6399 21.4472 27.9471C21.4472 30.2543 22.8985 31.1846 25.2801 31.1846C28.6665 31.1846 31.3087 28.803 31.4575 26.6074Z" fill="#231F20"/>
<path d="M42.8447 7.44263V31.9785C42.8447 32.7228 42.2865 33.281 41.4678 33.281C40.6492 33.281 40.1654 32.7228 40.1654 31.9785V7.44263C40.1654 6.73558 40.6864 6.14017 41.4678 6.14017C42.2493 6.14017 42.8447 6.73558 42.8447 7.44263Z" fill="#231F20"/>
<path d="M57.1718 30.9986C58.7348 30.9986 59.9256 30.6264 60.8187 30.2171C61.4885 29.9194 61.8979 29.6217 62.3816 29.6217C63.0515 29.6217 63.4236 30.1799 63.4236 30.7381C63.4236 31.1474 63.2003 31.6312 62.791 31.8545C61.3397 32.7104 59.6279 33.343 56.8741 33.343C51.2549 33.343 48.1662 29.8822 48.1662 23.8536C48.1662 18.3089 51.3293 14.662 56.4275 14.662C61.5257 14.662 63.9446 18.4205 63.9446 23.1838C63.9446 24.1885 63.4236 24.6723 62.4189 24.6723H50.8828C51.0688 28.9146 53.2272 30.9986 57.1718 30.9986ZM50.9572 22.5512H61.2652C61.0792 18.6066 59.1441 17.0064 56.4648 17.0064C53.4877 17.0064 51.3666 18.5321 50.9572 22.5512Z" fill="#231F20"/>
<path d="M84.908 21.6953V31.9661C84.908 32.7104 84.387 33.2686 83.5683 33.2686C82.7496 33.2686 82.2287 32.7104 82.2287 31.9661V22.0302C82.2287 18.8299 80.8518 17.0808 77.3537 17.0808C73.8557 17.0808 71.6601 19.723 71.6601 22.4023H71.6229L71.6601 31.9661C71.6601 32.7104 71.1019 33.2686 70.2832 33.2686C69.4645 33.2686 68.9808 32.7104 68.9808 31.9661V15.9644C68.9808 15.183 69.5018 14.6992 70.1344 14.6992C70.9159 14.6992 71.288 15.183 71.3252 15.9644L71.4741 18.3461C72.6649 16.2249 74.8977 14.662 78.1724 14.662C82.7869 14.662 84.908 17.3041 84.908 21.6953Z" fill="#231F20"/>
<path d="M94.3601 17.3041V28.4681C94.3601 30.5148 95.2905 30.9986 96.6674 30.9986C97.0767 30.9986 97.4116 30.9613 98.1931 30.8125C99.0862 30.6636 99.5328 31.259 99.5328 31.8545C99.5328 32.4127 99.1978 32.9336 98.5652 33.0453C97.7837 33.2313 96.8906 33.343 95.9975 33.343C93.2437 33.343 91.6808 32.3754 91.6808 28.5053V17.3041H89.4852C88.8898 17.3041 88.3688 16.8576 88.3688 16.1877C88.3688 15.4435 88.8898 15.0341 89.4852 15.0341H91.6808V11.1267C91.6808 10.3825 92.239 9.82427 93.0577 9.82427C93.8764 9.82427 94.3601 10.3825 94.3601 11.1267V15.0341H98.9001C99.4956 15.0341 100.017 15.4435 100.017 16.1877C100.017 16.8576 99.4956 17.3041 98.9001 17.3041H94.3601Z" fill="#231F20"/>
<path d="M104.643 32.0033C103.676 31.594 103.08 30.9986 103.08 29.8449C103.08 28.4681 103.936 27.6494 105.239 27.6494C105.499 27.6494 105.76 27.6866 106.057 27.761C107.099 27.9843 109.072 28.8774 112.384 28.8774C116.068 28.8774 117.817 27.6494 117.817 25.8631C117.817 19.909 103.527 23.6304 103.527 13.6572C103.527 9.11722 106.988 6.10296 113.388 6.10296C116.775 6.10296 120.198 7.03329 121.613 9.45214C121.947 9.93591 122.096 10.4569 122.096 10.9407C122.096 12.2803 120.98 13.1362 119.938 13.1362C118.896 13.1362 118.226 12.7269 117.519 12.0571C116.552 11.2384 115.696 10.308 113.016 10.308C110.337 10.308 108.588 11.6849 108.588 13.4339C108.588 19.6485 122.841 15.89 122.841 25.7887C122.841 30.7008 118.896 33.343 112.644 33.343C109.816 33.343 106.43 32.8592 104.643 32.0033Z" fill="#0079C1"/>
<path d="M143.06 16.8203C143.06 17.2297 142.911 17.7135 142.725 18.1228L135.357 35.3525C133.831 38.8877 131.486 39.9669 128.361 39.9669C127.914 39.9669 127.654 39.9669 127.43 39.9297C126.388 39.8553 125.421 39.0366 125.421 37.8086C125.421 36.655 126.239 35.7618 127.356 35.799C127.542 35.799 127.728 35.8363 128.063 35.8363C129.923 35.8363 131.003 35.1292 131.598 33.6407L132.007 32.6359L125.718 18.16C125.495 17.7135 125.383 17.2297 125.383 16.8203C125.383 15.4435 126.537 14.662 127.691 14.662C128.621 14.662 129.551 15.183 129.923 16.1505L134.315 26.7935L138.52 16.1133C138.892 15.1458 139.785 14.662 140.753 14.662C141.869 14.662 143.06 15.369 143.06 16.8203Z" fill="#0079C1"/>
<path d="M146.595 32.1894C145.851 31.8917 145.33 31.2218 145.33 30.3659C145.33 29.324 146.074 28.5053 147.153 28.5053C148.232 28.5053 149.2 29.51 152.735 29.51C155.042 29.51 155.935 28.9146 155.935 27.8354C155.935 24.5235 145.441 26.9795 145.441 20.1323C145.441 16.9692 147.823 14.662 153.07 14.662C155.824 14.662 158.429 15.7039 159.471 17.118C159.806 17.5646 159.955 18.0484 159.955 18.4949C159.955 19.4997 159.173 20.2812 158.094 20.2812C157.275 20.2812 156.68 19.7974 156.084 19.3136C155.34 18.4577 154.186 18.16 152.772 18.16C150.949 18.16 150.056 18.7554 150.056 19.8718C150.056 23.3326 160.624 20.7649 160.699 27.761C160.699 31.1474 158.094 33.343 152.698 33.343C150.205 33.343 148.158 32.8964 146.595 32.1894Z" fill="#0079C1"/>
<path d="M177.147 6.47509C184.552 6.47509 190.544 12.4788 190.544 19.8718C190.544 12.4664 196.547 6.47509 203.94 6.47509H177.135H177.147Z" fill="white"/>
<path d="M177.147 33.2686H190.544V19.8718C190.544 27.2772 184.54 33.2686 177.147 33.2686Z" fill="white"/>
</g>
<defs>
<linearGradient id="paint0_linear_1_297" x1="172.458" y1="1.77383" x2="208.505" y2="37.821" gradientUnits="userSpaceOnUse">
<stop stop-color="#00AEEF"/>
<stop offset="1" stop-color="#0079C1"/>
</linearGradient>
<clipPath id="clip0_1_297">
<rect width="210.428" height="60" fill="white"/>
</clipPath>
</defs>
</svg>
