<svg width="70" height="70" viewBox="0 0 70 70" fill="none" xmlns="http://www.w3.org/2000/svg">
<path d="M0.875437 22.4259L34.125 41.6056C34.391 41.7592 34.6928 41.8401 35 41.8401C35.3072 41.8401 35.609 41.7592 35.875 41.6056L69.1246 22.4259C69.3906 22.2723 69.6115 22.0514 69.765 21.7854C69.9186 21.5193 69.9995 21.2176 69.9995 20.9104C69.9995 20.6032 69.9186 20.3015 69.765 20.0355C69.6115 19.7694 69.3906 19.5485 69.1246 19.3949L35.875 0.229169C35.6078 0.078923 35.3065 0 35 0C34.6935 0 34.3922 0.078923 34.125 0.229169L0.875437 19.3949C0.609428 19.5485 0.388534 19.7694 0.234956 20.0355C0.0813774 20.3015 0.000524973 20.6032 0.000524973 20.9104C0.000524973 21.2176 0.0813774 21.5193 0.234956 21.7854C0.388534 22.0514 0.609428 22.2723 0.875437 22.4259ZM35 3.77112L64.7461 20.9139L35 38.0742L5.25388 20.9139L35 3.77112ZM67.3676 47.1846L35 66.0668L2.63241 47.1846C2.43386 47.0687 2.21443 46.9932 1.98667 46.9621C1.7589 46.9311 1.52725 46.9453 1.30495 47.0038C1.08265 47.0623 0.874052 47.164 0.69106 47.3031C0.508068 47.4422 0.35427 47.616 0.238445 47.8146C0.122621 48.0131 0.0470386 48.2325 0.0160149 48.4603C-0.0150087 48.6881 -0.000865968 48.9197 0.0576342 49.142C0.116134 49.3643 0.217847 49.5729 0.356965 49.7559C0.496083 49.9389 0.669881 50.0927 0.868437 50.2085L34.118 69.6053C34.3857 69.7615 34.6901 69.8438 35 69.8438C35.3099 69.8438 35.6143 69.7615 35.882 69.6053L69.1316 50.2085C69.3301 50.0927 69.5039 49.9389 69.643 49.7559C69.7822 49.5729 69.8839 49.3643 69.9424 49.142C70.0009 48.9197 70.015 48.6881 69.984 48.4603C69.953 48.2325 69.8774 48.0131 69.7616 47.8146C69.6457 47.616 69.4919 47.4422 69.3089 47.3031C69.1259 47.164 68.9173 47.0623 68.695 47.0038C68.4727 46.9453 68.2411 46.9311 68.0133 46.9621C67.7856 46.9932 67.5661 47.0687 67.3676 47.1846ZM67.3676 33.1847L35 52.067L2.63241 33.1847C2.43386 33.0689 2.21443 32.9933 1.98667 32.9623C1.7589 32.9313 1.52725 32.9454 1.30495 33.0039C1.08265 33.0624 0.874052 33.1642 0.69106 33.3033C0.508068 33.4424 0.35427 33.6162 0.238445 33.8147C0.122621 34.0133 0.0470386 34.2327 0.0160149 34.4605C-0.0150087 34.6883 -0.000865968 34.9199 0.0576342 35.1422C0.116134 35.3645 0.217847 35.5731 0.356965 35.7561C0.496083 35.9391 0.669881 36.0929 0.868437 36.2087L34.118 55.6055C34.3857 55.7617 34.6901 55.844 35 55.844C35.3099 55.844 35.6143 55.7617 35.882 55.6055L69.1316 36.2087C69.3301 36.0929 69.5039 35.9391 69.643 35.7561C69.7822 35.5731 69.8839 35.3645 69.9424 35.1422C70.0009 34.9199 70.015 34.6883 69.984 34.4605C69.953 34.2327 69.8774 34.0133 69.7616 33.8147C69.6457 33.6162 69.4919 33.4424 69.3089 33.3033C69.1259 33.1642 68.9173 33.0624 68.695 33.0039C68.4727 32.9454 68.2411 32.9313 68.0133 32.9623C67.7856 32.9933 67.5661 33.0689 67.3676 33.1847Z" fill="white"/>
</svg>
