<svg width="3504" height="494" viewBox="0 0 3504 494" fill="none" xmlns="http://www.w3.org/2000/svg">
<path d="M3502 412.04C3502 439.29 3490.53 466.02 3468.46 492H35.54C13.47 466.02 2 439.29 2 412.04C2 384.79 14.05 356.71 37.21 330.12C60.39 303.52 94.64 277.79 138.87 253.23C227.33 204.12 355.42 159.83 513.84 122.63C830.66 48.22 1268.42 2.19 1752 2.19C2235.58 2.19 2673.34 48.22 2990.15 122.63C3148.58 159.83 3276.68 204.12 3365.13 253.23C3409.36 277.79 3443.61 303.52 3466.79 330.12C3489.95 356.71 3502 384.1 3502 412.04Z" fill="url(#paint0_linear_2001_1549)" stroke="white" stroke-width="3"/>
<defs>
<linearGradient id="paint0_linear_2001_1549" x1="1752" y1="-14" x2="1752" y2="475.81" gradientUnits="userSpaceOnUse">
<stop stop-color="#00AEEF"/>
<stop offset="1" stop-color="#018FD4"/>
</linearGradient>
</defs>
</svg>
