<svg width="20" height="18" viewBox="0 0 20 18" fill="none" xmlns="http://www.w3.org/2000/svg">
                        <path d="M11.2514 17.1033C11.1318 16.9836 11.0647 16.8213 11.0647 16.6522C11.0647 16.483 11.1318 16.3208 11.2514 16.2011L17.8207 9.6307L0.638315 9.6307C0.469022 9.6307 0.306665 9.56345 0.186958 9.44374C0.0672489 9.32404 -3.69426e-07 9.16168 -3.62026e-07 8.99239C-3.54626e-07 8.8231 0.067249 8.66074 0.186958 8.54103C0.306665 8.42132 0.469022 8.35407 0.638315 8.35407L17.8207 8.35407L11.2514 1.78367C11.1386 1.66267 11.0772 1.50263 11.0802 1.33726C11.0831 1.17189 11.1501 1.01411 11.267 0.897163C11.384 0.780212 11.5418 0.713222 11.7071 0.710304C11.8725 0.707386 12.0325 0.768769 12.1535 0.881522L19.8133 8.54131C19.9329 8.661 20 8.82323 20 8.99239C20 9.16154 19.9329 9.32378 19.8133 9.44347L12.1535 17.1033C12.0338 17.2228 11.8716 17.2899 11.7025 17.2899C11.5333 17.2899 11.3711 17.2228 11.2514 17.1033Z" fill="#007BC1"/>
                    </svg>  