<svg width="70" height="62" viewBox="0 0 70 62" fill="none" xmlns="http://www.w3.org/2000/svg">
<path d="M50.3125 39.375C49.7323 39.375 49.1759 39.6055 48.7657 40.0157C48.3555 40.4259 48.125 40.9823 48.125 41.5625C48.125 42.1427 48.3555 42.6991 48.7657 43.1093C49.1759 43.5195 49.7323 43.75 50.3125 43.75H59.0625C59.6427 43.75 60.1991 43.5195 60.6093 43.1093C61.0195 42.6991 61.25 42.1427 61.25 41.5625C61.25 40.9823 61.0195 40.4259 60.6093 40.0157C60.1991 39.6055 59.6427 39.375 59.0625 39.375H50.3125ZM0 12.0312C0 8.84036 1.26757 5.78017 3.52387 3.52387C5.78017 1.26757 8.84036 0 12.0312 0H57.9688C61.1596 0 64.2198 1.26757 66.4761 3.52387C68.7324 5.78017 70 8.84036 70 12.0312V40.4688C70 43.6596 68.7324 46.7198 66.4761 48.9761C64.2198 51.2324 61.1596 52.5 57.9688 52.5H12.0312C8.84036 52.5 5.78017 51.2324 3.52387 48.9761C1.26757 46.7198 0 43.6596 0 40.4688V12.0312ZM12.0312 4.375C10.0007 4.375 8.05329 5.18164 6.61746 6.61746C5.18164 8.05329 4.375 10.0007 4.375 12.0312V17.5H65.625V12.0312C65.625 10.0007 64.8184 8.05329 63.3825 6.61746C61.9467 5.18164 59.9993 4.375 57.9688 4.375H12.0312ZM65.625 21.875H4.375V40.4688C4.375 44.695 7.805 48.125 12.0312 48.125H57.9688C59.9993 48.125 61.9467 47.3184 63.3825 45.8825C64.8184 44.4467 65.625 42.4993 65.625 40.4688V21.875Z" fill="white"/>
<circle cx="35" cy="50" r="11" fill="#0079C1" stroke="white" stroke-width="2"/>
<path d="M29.74 55.7554C29.6109 55.7554 29.4819 55.7047 29.3852 55.608C29.1916 55.4146 29.1916 55.0968 29.3852 54.8988L39.9052 44.3851C40.0988 44.1916 40.4167 44.1916 40.6149 44.3851C40.8084 44.5785 40.8084 44.8962 40.6149 45.0943L30.0948 55.608C29.998 55.7047 29.869 55.7554 29.74 55.7554Z" fill="white"/>
<path d="M40.2554 55.7554C40.1264 55.7554 39.9974 55.7048 39.9006 55.6081L29.3852 45.0989C29.1916 44.9055 29.1916 44.5877 29.3852 44.3897C29.5787 44.1963 29.8967 44.1963 30.0948 44.3897L40.6149 54.9035C40.8084 55.0969 40.8084 55.4146 40.6149 55.6127C40.5181 55.7094 40.3891 55.76 40.2601 55.76L40.2554 55.7554Z" fill="white"/>
</svg>
