<svg width="70" height="55" viewBox="0 0 70 55" fill="none" xmlns="http://www.w3.org/2000/svg">
<path d="M30.1698 39.6353C31.3753 40.8435 32.9231 41.3931 34.8131 41.2842C36.7031 41.1779 38.0823 40.4986 38.9508 39.2464L59.379 10.7683L30.7531 31.0526C29.4517 31.9185 28.727 33.2641 28.5793 35.0892C28.4315 36.9144 28.9617 38.4272 30.1698 39.6353ZM34.9998 2.17863e-05C38.5749 2.17863e-05 41.8286 0.435574 44.7608 1.30668C47.6956 2.17519 50.62 3.50389 53.5341 5.29276L49.9563 7.71553C47.6671 6.46591 45.2975 5.51573 42.8475 4.86499C40.3975 4.21425 37.7816 3.88888 34.9998 3.88888C26.3795 3.88888 19.0386 6.91961 12.9771 12.981C6.91569 19.0425 3.88627 26.3821 3.88886 34.9998C3.88886 37.722 4.26219 40.4118 5.00886 43.0692C5.75552 45.7266 6.8081 48.2219 8.16661 50.5552H61.8329C63.3237 48.0923 64.4099 45.5321 65.0918 42.8747C65.7736 40.2173 66.1133 37.4627 66.1107 34.6109C66.1107 32.2776 65.8099 29.8224 65.2085 27.2454C64.607 24.6684 63.6555 22.2677 62.354 20.0432L64.7807 16.4655C66.6733 19.7114 68.0123 22.7654 68.7979 25.6276C69.5834 28.4898 69.984 31.4687 69.9995 34.5642C70.0151 37.9087 69.6431 41.0301 68.8834 43.9286C68.1264 46.8271 66.9468 49.7489 65.3446 52.6941C65.0335 53.2126 64.5603 53.6339 63.9251 53.958C63.2899 54.2821 62.5925 54.4441 61.8329 54.4441H8.16661C7.45365 54.4441 6.79255 54.2704 6.18329 53.923C5.57663 53.573 5.06589 53.0636 4.65108 52.3947C3.36516 50.1262 2.2685 47.5673 1.3611 44.7181C0.4537 41.8688 0 38.6294 0 34.9998C0 30.2191 0.907402 25.7067 2.7222 21.4627C4.53441 17.2186 7.00903 13.5022 10.146 10.3133C13.2831 7.12442 16.993 4.60703 21.276 2.76111C25.5589 0.915201 30.1335 -0.00516336 34.9998 2.17863e-05Z" fill="white"/>
</svg>
