<svg width="50" height="50" viewBox="0 0 50 50" fill="none" xmlns="http://www.w3.org/2000/svg">
<path d="M43.7862 12.931H39.5081L29.0115 23.4229C29.3731 24.3443 29.4063 25.362 29.1057 26.305C28.8051 27.248 28.1889 28.0587 27.3608 28.6008C26.5328 29.143 25.5433 29.3834 24.5588 29.2818C23.5743 29.1801 22.6548 28.7426 21.9549 28.0428C21.2551 27.3429 20.8175 26.4234 20.7159 25.4389C20.6143 24.4544 20.8547 23.4649 21.3968 22.6368C21.939 21.8088 22.7497 21.1926 23.6927 20.892C24.6357 20.5914 25.6534 20.6246 26.5748 20.9861L37.069 10.4919V6.21373C37.0692 5.64127 37.2966 5.09228 37.7012 4.68729L41.6782 0.710284C41.7518 0.63621 41.8442 0.583589 41.9454 0.558072C42.0467 0.532556 42.153 0.535108 42.2529 0.565457C42.4575 0.625227 42.6092 0.795341 42.6506 1.00454L43.7081 6.29419L48.9954 7.35166C49.2023 7.39304 49.3725 7.54476 49.4322 7.74936C49.4624 7.84875 49.4651 7.95446 49.44 8.05525C49.4149 8.15604 49.363 8.24815 49.2897 8.32178L45.3104 12.2988C44.906 12.7028 44.3579 12.9301 43.7862 12.931Z" fill="url(#paint0_linear_4009_911)"/>
<path d="M3.44828 25C3.44828 30.7159 5.7189 36.1976 9.76063 40.2394C13.8024 44.2811 19.2841 46.5517 25 46.5517C27.8302 46.5517 30.6327 45.9943 33.2475 44.9112C35.8623 43.8281 38.2381 42.2406 40.2394 40.2394C42.2406 38.2381 43.8281 35.8623 44.9112 33.2475C45.9943 30.6327 46.5517 27.8302 46.5517 25C46.5517 22.9356 46.2621 20.9402 45.7218 19.0529C45.6144 18.6195 45.6793 18.1614 45.9029 17.7749C46.1264 17.3885 46.4911 17.1038 46.9203 16.9808C47.3495 16.8578 47.8097 16.906 48.204 17.1154C48.5983 17.3248 48.896 17.679 49.0345 18.1035C49.6644 20.2966 50 22.6092 50 25C50 38.8069 38.8069 50 25 50C11.1931 50 0 38.8069 0 25C0 11.1931 11.1931 1.21422e-05 25 1.21422e-05C27.3333 -0.00228671 29.6529 0.321851 31.8965 0.96323C32.1153 1.0246 32.3198 1.1286 32.4982 1.26925C32.6767 1.40991 32.8255 1.58445 32.9363 1.78283C33.0471 1.98122 33.1175 2.19954 33.1436 2.42524C33.1697 2.65095 33.1509 2.87959 33.0884 3.09801C33.0258 3.31644 32.9207 3.52035 32.7791 3.69801C32.6374 3.87568 32.4621 4.0236 32.2631 4.13327C32.0641 4.24294 31.8454 4.3122 31.6196 4.33707C31.3937 4.36194 31.1652 4.34192 30.9471 4.27817C29.013 3.72612 27.0113 3.44679 25 3.44829C19.2841 3.44829 13.8024 5.71891 9.76063 9.76064C5.7189 13.8024 3.44828 19.2841 3.44828 25Z" fill="url(#paint1_linear_4009_911)"/>
<path d="M13.7931 25C13.7995 26.5226 14.1162 28.0279 14.7238 29.424C15.3314 30.8201 16.2171 32.0778 17.327 33.1201C18.4369 34.1625 19.7475 34.9677 21.179 35.4866C22.6104 36.0055 24.1326 36.2272 25.6526 36.1382C27.1726 36.0492 28.6585 35.6514 30.0196 34.9689C31.3807 34.2865 32.5884 33.3338 33.569 32.169C34.5496 31.0043 35.2825 29.6518 35.723 28.1944C36.1635 26.7369 36.3024 25.2049 36.131 23.692C36.0827 23.3856 36.1183 23.0718 36.2338 22.7839C36.3493 22.4961 36.5406 22.2448 36.7873 22.0568C37.034 21.8688 37.3269 21.751 37.6351 21.7159C37.9433 21.6808 38.2553 21.7297 38.5379 21.8575C39.1149 22.115 39.5034 22.6644 39.554 23.2943C39.9109 26.3178 39.3171 29.3775 37.8549 32.0479C36.3927 34.7184 34.1349 36.867 31.3953 38.1951C28.6557 39.5232 25.5704 39.9648 22.5682 39.4585C19.5661 38.9522 16.7962 37.5232 14.6437 35.3701C12.4917 33.2194 11.0624 30.4523 10.5538 27.4526C10.0453 24.4529 10.4829 21.3694 11.8058 18.6295C13.1287 15.8897 15.2714 13.6295 17.9367 12.1623C20.6021 10.6951 23.6579 10.0937 26.6804 10.4414C26.9089 10.4626 27.1309 10.5292 27.3333 10.6373C27.5357 10.7454 27.7146 10.8928 27.8593 11.0709C28.004 11.249 28.1117 11.4542 28.1761 11.6745C28.2404 11.8947 28.2602 12.1256 28.2342 12.3536C28.2082 12.5816 28.1369 12.8021 28.0246 13.0022C27.9122 13.2023 27.7611 13.378 27.58 13.5189C27.3989 13.6598 27.1914 13.7632 26.9699 13.8229C26.7483 13.8826 26.517 13.8975 26.2896 13.8667C24.7196 13.6852 23.1289 13.8377 21.622 14.3144C20.115 14.791 18.7259 15.5809 17.5458 16.6323C16.3657 17.6836 15.4213 18.9727 14.7746 20.4148C14.1278 21.8569 13.7933 23.4195 13.7931 25Z" fill="url(#paint2_linear_4009_911)"/>
<defs>
<linearGradient id="paint0_linear_4009_911" x1="35.0751" y1="0.540649" x2="35.0751" y2="29.3046" gradientUnits="userSpaceOnUse">
<stop stop-color="#0079C1"/>
<stop offset="1" stop-color="#00AEEF"/>
</linearGradient>
<linearGradient id="paint1_linear_4009_911" x1="25" y1="0" x2="25" y2="50" gradientUnits="userSpaceOnUse">
<stop stop-color="#0079C1"/>
<stop offset="1" stop-color="#00AEEF"/>
</linearGradient>
<linearGradient id="paint2_linear_4009_911" x1="25.0014" y1="10.3453" x2="25.0014" y2="39.6625" gradientUnits="userSpaceOnUse">
<stop stop-color="#0079C1"/>
<stop offset="1" stop-color="#00AEEF"/>
</linearGradient>
</defs>
</svg>
