<svg width="50" height="59" viewBox="0 0 50 59" fill="none" xmlns="http://www.w3.org/2000/svg">
<path d="M20.8333 30.3959L15.4375 25.0001L12.5 27.9376L20.8333 36.2709L37.5 19.6042L34.5625 16.6667L20.8333 30.3959Z" fill="white"/>
<path d="M25 58.3333L12.1333 51.4729C8.46499 49.5218 5.39731 46.6085 3.25967 43.0456C1.12202 39.4827 -0.0048547 35.4049 1.57209e-05 31.25V4.16666C1.57209e-05 3.0616 0.439002 2.00179 1.2204 1.22039C2.0018 0.438986 3.06161 0 4.16668 0H45.8333C46.9384 0 47.9982 0.438986 48.7796 1.22039C49.561 2.00179 50 3.0616 50 4.16666V31.25C50.0049 35.4049 48.878 39.4827 46.7403 43.0456C44.6027 46.6085 41.535 49.5218 37.8667 51.4729L25 58.3333ZM4.16668 4.16666V31.25C4.16436 34.6493 5.08726 37.9852 6.83643 40.9C8.5856 43.8148 11.0951 46.1986 14.0958 47.7958L25 53.6104L35.9042 47.7979C38.9052 46.2005 41.4149 43.8164 43.1641 40.9012C44.9133 37.986 45.836 34.6497 45.8333 31.25V4.16666H4.16668Z" fill="white"/>
</svg>
