<svg width="70" height="70" viewBox="0 0 70 70" fill="none" xmlns="http://www.w3.org/2000/svg">
<path d="M48.435 0V3.79005C46.2239 4.16585 44.1244 5.02961 42.289 6.31855L39.5071 3.70379L35.8006 7.66636L38.4962 10.1922C37.2661 11.991 36.4327 14.0309 36.0513 16.1764H32.2612V21.5677H36.0513C36.4449 23.8051 37.329 25.843 38.5798 27.6329L35.7143 30.4093L39.596 34.291L42.3725 31.4229C44.1624 32.6737 46.2003 33.5578 48.4377 33.9514V37.7388H53.8289V33.9487C55.9743 33.5681 58.0142 32.7356 59.8132 31.5065L62.3363 34.2021L66.2989 30.4929L63.6841 27.7164C64.9511 25.9103 65.8137 23.8212 66.2126 21.565H70V16.1738H66.2099C65.8227 13.9909 64.9594 11.9201 63.6815 10.1086L66.2099 7.5801L62.4172 3.79005L59.8914 6.31855C58.0799 5.04057 56.0091 4.17729 53.8262 3.79005V0H48.435ZM51.1306 8.93061C52.4383 8.92202 53.7347 9.1732 54.9446 9.6696C56.1544 10.166 57.2537 10.8977 58.1785 11.8223C59.1033 12.7469 59.8353 13.8459 60.3321 15.0556C60.8288 16.2653 61.0803 17.5617 61.0721 18.8694C61.0721 24.4089 56.6701 28.8108 51.1306 28.8108C45.5911 28.8108 41.1892 24.4089 41.1892 18.8694C41.1892 13.3299 45.5911 8.92791 51.1306 8.92791V8.93061ZM16.1684 24.8483L11.203 26.87L13.1385 31.7491C10.5623 33.2911 8.39504 35.4306 6.81993 37.9867L2.02172 36.0459L0 41.0193L4.79821 42.9548C4.41963 44.413 4.22226 45.9123 4.21057 47.4187C4.21057 48.9552 4.43969 50.454 4.79821 51.8827L0 53.8235L2.02172 58.7916L6.81993 56.8507C8.38103 59.4401 10.5498 61.6098 13.1385 63.172L11.1976 67.9702L16.1711 69.9919L18.1119 65.1937C19.5701 65.5723 21.0694 65.7696 22.5759 65.7813C24.1124 65.7813 25.6165 65.5522 27.0398 65.1937L28.9807 69.9919L33.9487 67.9702L32.0079 63.172C34.5667 61.6002 36.7069 59.4323 38.2455 56.8534L43.1246 58.7889L45.1463 53.8209L40.2673 51.88C40.6177 50.4513 40.8549 48.9499 40.8549 47.416C40.8549 45.8795 40.6204 44.3754 40.2619 42.9494L45.149 41.0139L43.1273 36.0405L38.2482 37.9814C36.6993 35.432 34.5599 33.2926 32.0106 31.7437L33.9514 26.8646L28.978 24.8429L27.0452 29.722C25.585 29.3493 24.0855 29.1529 22.5786 29.137C21.042 29.137 19.5433 29.3688 18.1146 29.7247L16.1737 24.8456L16.1684 24.8483ZM22.5732 34.531C29.7516 34.531 35.4583 40.2457 35.4583 47.4214C35.4636 54.5999 29.7516 60.3928 22.5732 60.3928C20.8691 60.3949 19.1814 60.0609 17.6067 59.4097C16.032 58.7586 14.6012 57.8032 13.3963 56.5983C12.1914 55.3934 11.236 53.9626 10.5849 52.3879C9.93375 50.8132 9.59969 49.1255 9.60182 47.4214C9.60182 40.243 15.3974 34.531 22.5732 34.531Z" fill="white"/>
</svg>
