<svg width="57" height="54" viewBox="0 0 57 54" fill="none" xmlns="http://www.w3.org/2000/svg">
<path d="M2 16.9658C2.2863 11.4395 3.14244 7.9921 5.70812 5.54474C8.26829 3.0921 11.8746 2.27368 17.6556 2M54.3046 16.9658C54.0183 11.4395 53.1621 7.9921 50.5965 5.54474C48.0363 3.0921 44.43 2.27368 38.649 2M38.649 52C44.43 51.7263 48.0363 50.9079 50.5965 48.4553C53.1621 46.0079 54.0183 42.5605 54.3046 37.0342M17.6556 52C11.8746 51.7263 8.26829 50.9079 5.70812 48.4553C3.14244 46.0079 2.2863 42.5605 2 37.0342M49.1705 25.2053C49.8394 26.0053 50.1753 26.4079 50.1753 27C50.1753 27.5921 49.8394 27.9947 49.1705 28.7947C46.1616 32.3947 38.4783 40.1579 28.1523 40.1579C17.8263 40.1579 10.143 32.3947 7.13411 28.7947C6.46516 27.9947 6.12931 27.5921 6.12931 27C6.12931 26.4079 6.46516 26.0053 7.13411 25.2053C10.143 21.6053 17.8263 13.8421 28.1523 13.8421C38.4783 13.8421 46.1616 21.6053 49.1705 25.2053Z" stroke="url(#paint0_linear_4009_915)" stroke-width="4" stroke-linecap="round" stroke-linejoin="round"/>
<path d="M33.658 27.0002C33.658 25.6043 33.0779 24.2656 32.0454 23.2786C31.0129 22.2916 29.6124 21.7371 28.1522 21.7371C26.692 21.7371 25.2916 22.2916 24.2591 23.2786C23.2266 24.2656 22.6465 25.6043 22.6465 27.0002C22.6465 28.3961 23.2266 29.7348 24.2591 30.7218C25.2916 31.7089 26.692 32.2634 28.1522 32.2634C29.6124 32.2634 31.0129 31.7089 32.0454 30.7218C33.0779 29.7348 33.658 28.3961 33.658 27.0002Z" stroke="url(#paint1_linear_4009_915)" stroke-width="4" stroke-linecap="round" stroke-linejoin="round"/>
<defs>
<linearGradient id="paint0_linear_4009_915" x1="28.1523" y1="2" x2="28.1523" y2="52" gradientUnits="userSpaceOnUse">
<stop stop-color="#0079C1"/>
<stop offset="1" stop-color="#00AEEF"/>
</linearGradient>
<linearGradient id="paint1_linear_4009_915" x1="28.1522" y1="21.7371" x2="28.1522" y2="32.2634" gradientUnits="userSpaceOnUse">
<stop stop-color="#0079C1"/>
<stop offset="1" stop-color="#00AEEF"/>
</linearGradient>
</defs>
</svg>
